<svg width="20" height="21" viewBox="0 0 20 21" fill="none" xmlns="http://www.w3.org/2000/svg">
<path d="M18.3333 9.29069V3.62402C18.3333 2.37402 17.8 1.87402 16.475 1.87402H13.1083C11.7833 1.87402 11.25 2.37402 11.25 3.62402V9.29069C11.25 10.5407 11.7833 11.0407 13.1083 11.0407H16.475C17.8 11.0407 18.3333 10.5407 18.3333 9.29069Z" stroke="#A9A9B0" stroke-width="1.5" stroke-linecap="round" stroke-linejoin="round"/>
<path d="M18.3333 16.79V15.29C18.3333 14.04 17.8 13.54 16.475 13.54H13.1083C11.7833 13.54 11.25 14.04 11.25 15.29V16.79C11.25 18.04 11.7833 18.54 13.1083 18.54H16.475C17.8 18.54 18.3333 18.04 18.3333 16.79Z" stroke="#A9A9B0" stroke-width="1.5" stroke-linecap="round" stroke-linejoin="round"/>
<path d="M8.75008 11.124V16.7907C8.75008 18.0407 8.21675 18.5407 6.89175 18.5407H3.52508C2.20008 18.5407 1.66675 18.0407 1.66675 16.7907V11.124C1.66675 9.87402 2.20008 9.37402 3.52508 9.37402H6.89175C8.21675 9.37402 8.75008 9.87402 8.75008 11.124Z" stroke="#A9A9B0" stroke-width="1.5" stroke-linecap="round" stroke-linejoin="round"/>
<path d="M8.75008 3.62402V5.12402C8.75008 6.37402 8.21675 6.87402 6.89175 6.87402H3.52508C2.20008 6.87402 1.66675 6.37402 1.66675 5.12402V3.62402C1.66675 2.37402 2.20008 1.87402 3.52508 1.87402H6.89175C8.21675 1.87402 8.75008 2.37402 8.75008 3.62402Z" stroke="#A9A9B0" stroke-width="1.5" stroke-linecap="round" stroke-linejoin="round"/>
</svg>
