<svg width="66" height="54" viewBox="0 0 66 54" fill="none"
    xmlns="http://www.w3.org/2000/svg">
    <path d="M11.808 23C12.992 23 13.584 23.496 13.584 24.488C13.584 25.496 12.992 26 11.808 26H2.88C2.384 26 1.984 25.856 1.68 25.568C1.392 25.264 1.248 24.888 1.248 24.44C1.248 23.864 1.48 23.336 1.944 22.856L7.224 17.264C8.408 16.016 9 14.864 9 13.808C9 13.152 8.816 12.656 8.448 12.32C8.08 11.968 7.544 11.792 6.84 11.792C6.232 11.792 5.672 11.896 5.16 12.104C4.648 12.312 4.056 12.616 3.384 13.016C3.112 13.176 2.904 13.288 2.76 13.352C2.616 13.416 2.448 13.448 2.256 13.448C1.92 13.448 1.632 13.296 1.392 12.992C1.152 12.672 1.032 12.304 1.032 11.888C1.032 11.584 1.08 11.336 1.176 11.144C1.288 10.936 1.464 10.752 1.704 10.592C2.424 10.064 3.248 9.648 4.176 9.344C5.12 9.024 6.064 8.864 7.008 8.864C8.144 8.864 9.136 9.056 9.984 9.44C10.848 9.824 11.512 10.376 11.976 11.096C12.44 11.8 12.672 12.616 12.672 13.544C12.672 14.52 12.464 15.424 12.048 16.256C11.648 17.088 10.968 18.016 10.008 19.04L6.24 23H11.808ZM26.4621 9.08C26.9581 9.08 27.3421 9.224 27.6141 9.512C27.8861 9.8 28.0221 10.168 28.0221 10.616C28.0221 11.08 27.8941 11.536 27.6381 11.984L20.1501 25.232C19.9741 25.568 19.7421 25.816 19.4541 25.976C19.1821 26.136 18.8941 26.216 18.5901 26.216C18.1261 26.216 17.7101 26.056 17.3421 25.736C16.9741 25.4 16.7901 24.992 16.7901 24.512C16.7901 24.176 16.8781 23.856 17.0541 23.552L23.6061 12.08H16.9581C15.7901 12.08 15.2061 11.584 15.2061 10.592C15.2061 9.584 15.7901 9.08 16.9581 9.08H26.4621ZM37.2287 15.008C38.2207 15.008 39.1007 15.24 39.8687 15.704C40.6527 16.168 41.2607 16.816 41.6927 17.648C42.1407 18.48 42.3647 19.424 42.3647 20.48C42.3647 21.584 42.1167 22.576 41.6207 23.456C41.1247 24.32 40.4367 25 39.5567 25.496C38.6767 25.976 37.6847 26.216 36.5807 26.216C34.3887 26.216 32.6927 25.488 31.4927 24.032C30.2927 22.576 29.6927 20.496 29.6927 17.792C29.6927 15.984 29.9727 14.408 30.5327 13.064C31.0927 11.704 31.8927 10.664 32.9327 9.944C33.9887 9.224 35.2127 8.864 36.6047 8.864C37.5167 8.864 38.4367 9.016 39.3647 9.32C40.2927 9.624 41.0847 10.048 41.7407 10.592C41.9647 10.768 42.1247 10.96 42.2207 11.168C42.3327 11.36 42.3887 11.6 42.3887 11.888C42.3887 12.304 42.2687 12.664 42.0287 12.968C41.8047 13.256 41.5247 13.4 41.1887 13.4C40.9807 13.4 40.7967 13.376 40.6367 13.328C40.4927 13.264 40.2927 13.16 40.0367 13.016C39.3967 12.632 38.8207 12.336 38.3087 12.128C37.8127 11.904 37.3007 11.792 36.7727 11.792C35.7807 11.792 34.9887 12.248 34.3967 13.16C33.8207 14.072 33.4927 15.352 33.4127 17C33.7807 16.392 34.3007 15.912 34.9727 15.56C35.6447 15.192 36.3967 15.008 37.2287 15.008ZM36.3647 23.312C37.1167 23.312 37.7167 23.064 38.1647 22.568C38.6287 22.072 38.8607 21.416 38.8607 20.6C38.8607 19.8 38.6287 19.152 38.1647 18.656C37.7167 18.16 37.1167 17.912 36.3647 17.912C35.6127 17.912 35.0047 18.16 34.5407 18.656C34.0767 19.152 33.8447 19.8 33.8447 20.6C33.8447 21.4 34.0767 22.056 34.5407 22.568C35.0047 23.064 35.6127 23.312 36.3647 23.312Z" fill="#535261"/>
    <path d="M19.862 48C19.638 48 19.4607 47.9393 19.33 47.818C19.2087 47.6873 19.148 47.5147 19.148 47.3V38.83C19.148 38.6153 19.2087 38.4473 19.33 38.326C19.4607 38.1953 19.638 38.13 19.862 38.13H22.606C24.202 38.13 25.4387 38.5593 26.316 39.418C27.1933 40.2767 27.632 41.49 27.632 43.058C27.632 44.626 27.1933 45.844 26.316 46.712C25.4387 47.5707 24.202 48 22.606 48H19.862ZM22.522 46.796C24.9487 46.796 26.162 45.55 26.162 43.058C26.162 40.5753 24.9487 39.334 22.522 39.334H20.59V46.796H22.522ZM30.1393 48.07C29.934 48.07 29.7613 48.014 29.6213 47.902C29.4906 47.79 29.4253 47.622 29.4253 47.398V41.714C29.4253 41.49 29.4906 41.322 29.6213 41.21C29.7613 41.0887 29.934 41.028 30.1393 41.028C30.3446 41.028 30.5126 41.0887 30.6433 41.21C30.774 41.322 30.8393 41.49 30.8393 41.714V47.398C30.8393 47.622 30.774 47.79 30.6433 47.902C30.5126 48.014 30.3446 48.07 30.1393 48.07ZM30.1393 39.656C29.8686 39.656 29.654 39.5813 29.4953 39.432C29.3366 39.2827 29.2573 39.0867 29.2573 38.844C29.2573 38.6013 29.3366 38.41 29.4953 38.27C29.654 38.1207 29.8686 38.046 30.1393 38.046C30.4006 38.046 30.6106 38.1207 30.7693 38.27C30.9373 38.41 31.0213 38.6013 31.0213 38.844C31.0213 39.0867 30.942 39.2827 30.7833 39.432C30.6246 39.5813 30.41 39.656 30.1393 39.656ZM30.1253 50.688C29.8826 50.688 29.6866 50.6133 29.5373 50.464C29.388 50.324 29.3133 50.1373 29.3133 49.904C29.3133 49.6707 29.388 49.484 29.5373 49.344C29.6866 49.204 29.8826 49.134 30.1253 49.134C30.3586 49.134 30.55 49.204 30.6993 49.344C30.858 49.4933 30.9373 49.68 30.9373 49.904C30.9373 50.1373 30.8626 50.324 30.7133 50.464C30.564 50.6133 30.368 50.688 30.1253 50.688ZM35.7419 48.098C35.0793 48.098 34.4959 47.9533 33.9919 47.664C33.4973 47.3747 33.1099 46.964 32.8299 46.432C32.5593 45.9 32.4239 45.284 32.4239 44.584C32.4239 43.8747 32.5639 43.2493 32.8439 42.708C33.1333 42.1667 33.5346 41.7467 34.0479 41.448C34.5613 41.1493 35.1493 41 35.8119 41C36.1666 41 36.5213 41.0513 36.8759 41.154C37.2399 41.2567 37.5619 41.3967 37.8419 41.574C38.1406 41.7793 38.2899 42.0173 38.2899 42.288C38.2899 42.4467 38.2479 42.582 38.1639 42.694C38.0799 42.7967 37.9726 42.848 37.8419 42.848C37.7579 42.848 37.6739 42.8293 37.5899 42.792C37.5059 42.7453 37.3986 42.68 37.2679 42.596C37.0346 42.4467 36.8153 42.3347 36.6099 42.26C36.4139 42.176 36.1759 42.134 35.8959 42.134C35.2613 42.134 34.7666 42.3487 34.4119 42.778C34.0666 43.2073 33.8939 43.8047 33.8939 44.57C33.8939 45.3353 34.0666 45.928 34.4119 46.348C34.7573 46.7587 35.2473 46.964 35.8819 46.964C36.1619 46.964 36.4093 46.922 36.6239 46.838C36.8386 46.754 37.0579 46.642 37.2819 46.502C37.3846 46.4367 37.4873 46.3807 37.5899 46.334C37.6926 46.2873 37.7859 46.264 37.8699 46.264C38.0006 46.264 38.1079 46.32 38.1919 46.432C38.2759 46.5347 38.3179 46.6653 38.3179 46.824C38.3179 46.9547 38.2806 47.076 38.2059 47.188C38.1406 47.2907 38.0239 47.398 37.8559 47.51C37.5759 47.6967 37.2493 47.8413 36.8759 47.944C36.5026 48.0467 36.1246 48.098 35.7419 48.098ZM43.2795 41C44.9035 41 45.7155 41.9193 45.7155 43.758V47.398C45.7155 47.6033 45.6502 47.7667 45.5195 47.888C45.3888 48.0093 45.2162 48.07 45.0015 48.07C44.7868 48.07 44.6142 48.0093 44.4835 47.888C44.3622 47.7667 44.3015 47.6033 44.3015 47.398V43.772C44.3015 43.212 44.1848 42.8013 43.9515 42.54C43.7275 42.2787 43.3728 42.148 42.8875 42.148C42.3182 42.148 41.8608 42.3253 41.5155 42.68C41.1702 43.0347 40.9975 43.5107 40.9975 44.108V47.398C40.9975 47.6033 40.9322 47.7667 40.8015 47.888C40.6802 48.0093 40.5122 48.07 40.2975 48.07C40.0828 48.07 39.9102 48.0093 39.7795 47.888C39.6488 47.7667 39.5835 47.6033 39.5835 47.398V38.732C39.5835 38.5267 39.6488 38.3633 39.7795 38.242C39.9195 38.1207 40.0968 38.06 40.3115 38.06C40.5168 38.06 40.6802 38.1207 40.8015 38.242C40.9322 38.354 40.9975 38.508 40.9975 38.704V42.204C41.2308 41.812 41.5435 41.5133 41.9355 41.308C42.3275 41.1027 42.7755 41 43.2795 41ZM56.1993 41.448C56.2553 41.308 56.3347 41.2053 56.4373 41.14C56.5493 41.0747 56.666 41.042 56.7873 41.042C56.9647 41.042 57.1187 41.1027 57.2493 41.224C57.3893 41.3453 57.4593 41.49 57.4593 41.658C57.4593 41.7513 57.4407 41.84 57.4033 41.924L54.7293 47.594C54.664 47.7433 54.5613 47.86 54.4213 47.944C54.2907 48.0187 54.1507 48.056 54.0013 48.056C53.852 48.056 53.7073 48.0187 53.5673 47.944C53.4367 47.86 53.3387 47.7433 53.2733 47.594L50.5993 41.924C50.562 41.8493 50.5433 41.7607 50.5433 41.658C50.5433 41.49 50.618 41.3453 50.7673 41.224C50.9167 41.1027 51.0847 41.042 51.2713 41.042C51.542 41.042 51.7427 41.1727 51.8733 41.434L54.0433 46.25L56.1993 41.448ZM63.9068 41.028C64.1214 41.028 64.2894 41.0887 64.4108 41.21C64.5414 41.3313 64.6068 41.4993 64.6068 41.714V47.412C64.6068 47.608 64.5414 47.7667 64.4108 47.888C64.2801 48.0093 64.1074 48.07 63.8928 48.07C63.6968 48.07 63.5381 48.014 63.4168 47.902C63.2954 47.7807 63.2348 47.622 63.2348 47.426V46.894C63.0201 47.286 62.7214 47.5847 62.3388 47.79C61.9654 47.9953 61.5454 48.098 61.0788 48.098C59.4174 48.098 58.5868 47.1833 58.5868 45.354V41.714C58.5868 41.4993 58.6474 41.3313 58.7688 41.21C58.8994 41.0887 59.0768 41.028 59.3008 41.028C59.5154 41.028 59.6834 41.0887 59.8048 41.21C59.9354 41.3313 60.0008 41.4993 60.0008 41.714V45.34C60.0008 45.8907 60.1128 46.2967 60.3368 46.558C60.5608 46.8193 60.9061 46.95 61.3728 46.95C61.9234 46.95 62.3621 46.7727 62.6888 46.418C63.0248 46.0633 63.1928 45.592 63.1928 45.004V41.714C63.1928 41.5087 63.2581 41.3453 63.3888 41.224C63.5194 41.0933 63.6921 41.028 63.9068 41.028ZM61.6108 50.688C61.3681 50.688 61.1721 50.6133 61.0228 50.464C60.8734 50.324 60.7988 50.1373 60.7988 49.904C60.7988 49.6707 60.8734 49.484 61.0228 49.344C61.1721 49.204 61.3681 49.134 61.6108 49.134C61.8441 49.134 62.0354 49.204 62.1848 49.344C62.3434 49.4933 62.4228 49.68 62.4228 49.904C62.4228 50.1373 62.3481 50.324 62.1988 50.464C62.0494 50.6133 61.8534 50.688 61.6108 50.688Z" fill="#4277FF"/>
    <ellipse cx="3.22131" cy="47.0817" rx="0.498165" ry="0.495793" fill="#4277FF"/>
    <ellipse cx="4.88171" cy="47.0817" rx="0.498165" ry="0.495793" fill="#4277FF"/>
    <ellipse cx="6.54236" cy="47.0817" rx="0.498165" ry="0.495793" fill="#4277FF"/>
    <g clip-path="url(#clip0_233_8325)">
        <path d="M9.63057 40.8252C9.96328 40.8252 10.2657 40.9195 10.527 41.1271C11.0219 41.526 11.0934 42.2025 10.6782 42.6823C10.549 42.8332 10.395 42.968 10.2492 43.1028C10.0678 43.2699 9.93578 43.4505 9.94678 43.7146C9.95503 43.906 9.7928 44.0327 9.60307 44.0273C9.42434 44.0192 9.3006 43.8817 9.29236 43.6904C9.27586 43.34 9.39959 43.0435 9.64156 42.7928C9.80654 42.6203 9.98802 42.4667 10.1503 42.2915C10.373 42.0543 10.3235 41.7443 10.0375 41.5799C9.94953 41.5287 9.84229 41.4936 9.7378 41.4802C9.40784 41.4397 9.11088 41.5395 8.98439 41.9572C8.93215 42.1351 8.74792 42.2268 8.57744 42.1756C8.39871 42.1244 8.30522 41.9545 8.35472 41.7686C8.5032 41.1918 8.99539 40.8279 9.63057 40.8252Z" fill="#4277FF"/>
        <path d="M9.633 44.3605C9.81997 44.3659 9.95746 44.5088 9.95196 44.6866C9.94646 44.8699 9.79523 45.0047 9.6055 44.9966C9.42402 44.9885 9.28654 44.843 9.29479 44.6651C9.30029 44.4872 9.44602 44.3551 9.633 44.3605Z" fill="#4277FF"/>
    </g>
    <path d="M14.7704 42.7304C14.7704 44.0428 14.0591 45.2227 12.9266 46.0437C12.8874 46.071 12.8658 46.1178 12.8639 46.1646L12.8149 47.4419C12.809 47.6135 12.6189 47.713 12.4739 47.6213L11.3864 46.9407C11.3864 46.9407 11.3864 46.9407 11.3845 46.9407C11.3218 46.8998 11.2453 46.8881 11.1748 46.9095C10.5282 47.1104 9.82472 47.2216 9.08797 47.2216C9.07817 47.2216 9.06837 47.2216 9.05857 47.2216C9.07817 47.0928 9.08797 46.9622 9.08797 46.8296C9.08797 44.9984 7.2108 43.5144 4.89472 43.5144C4.41857 43.5144 3.96201 43.5768 3.53485 43.6918C3.44863 43.3817 3.40356 43.058 3.40356 42.7265C3.40356 40.244 5.94695 38.2334 9.08601 38.2334C12.227 38.2373 14.7704 40.2498 14.7704 42.7304Z" stroke="#4277FF" stroke-width="1.10526" stroke-miterlimit="10"/>
    <path d="M3.53675 43.6953C1.88884 44.1419 0.703369 45.3783 0.703369 46.8331C0.703369 47.8003 1.22851 48.6721 2.06324 49.2785C2.09263 49.3 2.1083 49.3331 2.11026 49.3682L2.14553 50.3102C2.14945 50.4369 2.29053 50.5091 2.3983 50.4428L3.20168 49.9396C3.20756 49.9357 3.2154 49.9299 3.22128 49.926C3.25067 49.9026 3.28986 49.8948 3.32513 49.9065C3.81108 50.0625 4.34013 50.1483 4.89662 50.1483C7.04419 50.1483 8.81555 48.871 9.06048 47.2251" stroke="#4277FF" stroke-width="1.10526" stroke-miterlimit="10"/>
    <defs>
        <clipPath id="clip0_233_8325">
            <rect width="2.60944" height="4.1751" fill="white" transform="translate(8.34058 40.8242)"/>
        </clipPath>
    </defs>
</svg>
