<svg width="67" height="54" viewBox="0 0 67 54" fill="none"
    xmlns="http://www.w3.org/2000/svg">
    <path d="M12.48 20.048C13.648 20.048 14.232 20.52 14.232 21.464C14.232 22.424 13.648 22.904 12.48 22.904H11.592V24.272C11.592 24.88 11.424 25.344 11.088 25.664C10.752 25.984 10.312 26.144 9.768 26.144C9.224 26.144 8.784 25.984 8.448 25.664C8.112 25.344 7.944 24.88 7.944 24.272V22.904H2.112C1.616 22.904 1.224 22.76 0.936 22.472C0.648 22.168 0.504 21.792 0.504 21.344C0.504 20.896 0.656 20.448 0.96 20L8.112 9.776C8.304 9.504 8.544 9.304 8.832 9.176C9.12 9.032 9.424 8.96 9.744 8.96C10.24 8.96 10.672 9.128 11.04 9.464C11.408 9.784 11.592 10.232 11.592 10.808V20.048H12.48ZM4.272 20.048H7.944V14.768L4.272 20.048ZM17.5106 26.144C16.9186 26.144 16.4306 25.952 16.0466 25.568C15.6626 25.168 15.4706 24.672 15.4706 24.08C15.4706 23.488 15.6626 23 16.0466 22.616C16.4306 22.216 16.9186 22.016 17.5106 22.016C18.1026 22.016 18.5906 22.216 18.9746 22.616C19.3586 23 19.5506 23.488 19.5506 24.08C19.5506 24.672 19.3586 25.168 18.9746 25.568C18.5906 25.952 18.1026 26.144 17.5106 26.144ZM32.433 23C33.617 23 34.209 23.496 34.209 24.488C34.209 25.496 33.617 26 32.433 26H23.505C23.009 26 22.609 25.856 22.305 25.568C22.017 25.264 21.873 24.888 21.873 24.44C21.873 23.864 22.105 23.336 22.569 22.856L27.849 17.264C29.033 16.016 29.625 14.864 29.625 13.808C29.625 13.152 29.441 12.656 29.073 12.32C28.705 11.968 28.169 11.792 27.465 11.792C26.857 11.792 26.297 11.896 25.785 12.104C25.273 12.312 24.681 12.616 24.009 13.016C23.737 13.176 23.529 13.288 23.385 13.352C23.241 13.416 23.073 13.448 22.881 13.448C22.545 13.448 22.257 13.296 22.017 12.992C21.777 12.672 21.657 12.304 21.657 11.888C21.657 11.584 21.705 11.336 21.801 11.144C21.913 10.936 22.089 10.752 22.329 10.592C23.049 10.064 23.873 9.648 24.801 9.344C25.745 9.024 26.689 8.864 27.633 8.864C28.769 8.864 29.761 9.056 30.609 9.44C31.473 9.824 32.137 10.376 32.601 11.096C33.065 11.8 33.297 12.616 33.297 13.544C33.297 14.52 33.089 15.424 32.673 16.256C32.273 17.088 31.593 18.016 30.633 19.04L26.865 23H32.433ZM46.8471 23C48.0311 23 48.6231 23.496 48.6231 24.488C48.6231 25.496 48.0311 26 46.8471 26H37.9191C37.4231 26 37.0231 25.856 36.7191 25.568C36.4311 25.264 36.2871 24.888 36.2871 24.44C36.2871 23.864 36.5191 23.336 36.9831 22.856L42.2631 17.264C43.4471 16.016 44.0391 14.864 44.0391 13.808C44.0391 13.152 43.8551 12.656 43.4871 12.32C43.1191 11.968 42.5831 11.792 41.8791 11.792C41.2711 11.792 40.7111 11.896 40.1991 12.104C39.6871 12.312 39.0951 12.616 38.4231 13.016C38.1511 13.176 37.9431 13.288 37.7991 13.352C37.6551 13.416 37.4871 13.448 37.2951 13.448C36.9591 13.448 36.6711 13.296 36.4311 12.992C36.1911 12.672 36.0711 12.304 36.0711 11.888C36.0711 11.584 36.1191 11.336 36.2151 11.144C36.3271 10.936 36.5031 10.752 36.7431 10.592C37.4631 10.064 38.2871 9.648 39.2151 9.344C40.1591 9.024 41.1031 8.864 42.0471 8.864C43.1831 8.864 44.1751 9.056 45.0231 9.44C45.8871 9.824 46.5511 10.376 47.0151 11.096C47.4791 11.8 47.7111 12.616 47.7111 13.544C47.7111 14.52 47.5031 15.424 47.0871 16.256C46.6871 17.088 46.0071 18.016 45.0471 19.04L41.2791 23H46.8471ZM61.5971 23C62.7651 23 63.3491 23.496 63.3491 24.488C63.3491 25.496 62.7651 26 61.5971 26H53.3891C52.2051 26 51.6131 25.496 51.6131 24.488C51.6131 23.496 52.2051 23 53.3891 23H55.6211V13.184L53.5091 14.456C53.2691 14.6 53.0291 14.672 52.7891 14.672C52.3891 14.672 52.0451 14.504 51.7571 14.168C51.4851 13.832 51.3491 13.456 51.3491 13.04C51.3491 12.48 51.5971 12.056 52.0931 11.768L55.8851 9.488C56.4451 9.152 57.0051 8.984 57.5651 8.984C58.0931 8.984 58.5251 9.152 58.8611 9.488C59.1971 9.808 59.3651 10.248 59.3651 10.808V23H61.5971Z" fill="#535261"/>
    <path d="M22.228 48.07C22.0133 48.07 21.836 48.0047 21.696 47.874C21.5653 47.734 21.5 47.5567 21.5 47.342V39.334H18.7C18.252 39.334 18.028 39.1333 18.028 38.732C18.028 38.536 18.084 38.3867 18.196 38.284C18.3173 38.1813 18.4853 38.13 18.7 38.13H25.756C25.9707 38.13 26.134 38.1813 26.246 38.284C26.3673 38.3867 26.428 38.536 26.428 38.732C26.428 39.1333 26.204 39.334 25.756 39.334H22.956V47.342C22.956 47.5567 22.8907 47.734 22.76 47.874C22.6293 48.0047 22.452 48.07 22.228 48.07ZM31.9182 41C33.5422 41 34.3542 41.9193 34.3542 43.758V47.398C34.3542 47.6033 34.2889 47.7667 34.1582 47.888C34.0275 48.0093 33.8549 48.07 33.6402 48.07C33.4255 48.07 33.2529 48.0093 33.1222 47.888C33.0009 47.7667 32.9402 47.6033 32.9402 47.398V43.772C32.9402 43.212 32.8235 42.8013 32.5902 42.54C32.3662 42.2787 32.0115 42.148 31.5262 42.148C30.9569 42.148 30.4995 42.3253 30.1542 42.68C29.8089 43.0347 29.6362 43.5107 29.6362 44.108V47.398C29.6362 47.6033 29.5709 47.7667 29.4402 47.888C29.3189 48.0093 29.1509 48.07 28.9362 48.07C28.7215 48.07 28.5489 48.0093 28.4182 47.888C28.2875 47.7667 28.2222 47.6033 28.2222 47.398V38.732C28.2222 38.5267 28.2875 38.3633 28.4182 38.242C28.5582 38.1207 28.7355 38.06 28.9502 38.06C29.1555 38.06 29.3189 38.1207 29.4402 38.242C29.5709 38.354 29.6362 38.508 29.6362 38.704V42.204C29.8695 41.812 30.1822 41.5133 30.5742 41.308C30.9662 41.1027 31.4142 41 31.9182 41ZM37.0026 48.07C36.7973 48.07 36.6246 48.014 36.4846 47.902C36.3539 47.79 36.2886 47.622 36.2886 47.398V41.714C36.2886 41.49 36.3539 41.322 36.4846 41.21C36.6246 41.0887 36.7973 41.028 37.0026 41.028C37.2079 41.028 37.3759 41.0887 37.5066 41.21C37.6373 41.322 37.7026 41.49 37.7026 41.714V47.398C37.7026 47.622 37.6373 47.79 37.5066 47.902C37.3759 48.014 37.2079 48.07 37.0026 48.07ZM37.0026 39.656C36.7319 39.656 36.5173 39.5813 36.3586 39.432C36.1999 39.2827 36.1206 39.0867 36.1206 38.844C36.1206 38.6013 36.1999 38.41 36.3586 38.27C36.5173 38.1207 36.7319 38.046 37.0026 38.046C37.2639 38.046 37.4739 38.1207 37.6326 38.27C37.8006 38.41 37.8846 38.6013 37.8846 38.844C37.8846 39.0867 37.8053 39.2827 37.6466 39.432C37.4879 39.5813 37.2733 39.656 37.0026 39.656ZM45.0272 46.278C45.1579 46.278 45.2652 46.3293 45.3492 46.432C45.4332 46.5347 45.4752 46.6653 45.4752 46.824C45.4752 47.0947 45.3072 47.3233 44.9712 47.51C44.6446 47.6967 44.2852 47.8413 43.8932 47.944C43.5106 48.0467 43.1419 48.098 42.7872 48.098C41.7046 48.098 40.8506 47.7853 40.2252 47.16C39.5999 46.5253 39.2872 45.662 39.2872 44.57C39.2872 43.87 39.4226 43.2493 39.6932 42.708C39.9732 42.1667 40.3606 41.7467 40.8552 41.448C41.3592 41.1493 41.9286 41 42.5632 41C43.4779 41 44.2012 41.294 44.7332 41.882C45.2652 42.47 45.5312 43.2633 45.5312 44.262C45.5312 44.6353 45.3632 44.822 45.0272 44.822H40.7012C40.7946 46.2687 41.4899 46.992 42.7872 46.992C43.1326 46.992 43.4312 46.9453 43.6832 46.852C43.9352 46.7587 44.2012 46.6373 44.4812 46.488C44.5092 46.4693 44.5839 46.432 44.7052 46.376C44.8359 46.3107 44.9432 46.278 45.0272 46.278ZM42.5912 42.036C42.0499 42.036 41.6159 42.2087 41.2892 42.554C40.9626 42.8993 40.7666 43.3847 40.7012 44.01H44.3132C44.2852 43.3753 44.1219 42.89 43.8232 42.554C43.5339 42.2087 43.1232 42.036 42.5912 42.036ZM44.4112 38.816C44.3459 38.8533 44.2759 38.872 44.2012 38.872C44.1079 38.872 44.0239 38.8393 43.9492 38.774C43.8839 38.7087 43.8512 38.6293 43.8512 38.536C43.8512 38.4427 43.8839 38.3587 43.9492 38.284L44.9152 37.038C45.0739 36.842 45.2466 36.744 45.4332 36.744C45.5919 36.744 45.7272 36.8047 45.8392 36.926C45.9606 37.038 46.0212 37.1733 46.0212 37.332C46.0212 37.5653 45.8999 37.7567 45.6572 37.906L44.4112 38.816ZM41.4012 40.202C41.3172 40.286 41.2099 40.328 41.0792 40.328C40.9486 40.328 40.8366 40.2813 40.7432 40.188C40.6499 40.0947 40.6032 39.9873 40.6032 39.866C40.6032 39.7073 40.6779 39.572 40.8272 39.46L41.9892 38.396C42.1759 38.2467 42.3672 38.172 42.5632 38.172C42.7406 38.172 42.9319 38.2467 43.1372 38.396L44.2992 39.46C44.4579 39.5813 44.5372 39.7213 44.5372 39.88C44.5372 40.0013 44.4859 40.1087 44.3832 40.202C44.2899 40.2953 44.1779 40.342 44.0472 40.342C43.9446 40.342 43.8419 40.3 43.7392 40.216L42.5632 39.054L41.4012 40.202ZM50.367 46.992C50.5723 47.0107 50.717 47.0667 50.801 47.16C50.8943 47.244 50.941 47.3653 50.941 47.524C50.941 47.7107 50.8663 47.8553 50.717 47.958C50.577 48.0513 50.367 48.0887 50.087 48.07L49.709 48.042C48.953 47.986 48.3883 47.7573 48.015 47.356C47.6417 46.9453 47.455 46.3433 47.455 45.55V42.26H46.615C46.2043 42.26 45.999 42.078 45.999 41.714C45.999 41.546 46.0503 41.4153 46.153 41.322C46.265 41.2193 46.419 41.168 46.615 41.168H47.455V39.726C47.455 39.5113 47.5157 39.3433 47.637 39.222C47.7677 39.1007 47.9403 39.04 48.155 39.04C48.3697 39.04 48.5423 39.1007 48.673 39.222C48.8037 39.3433 48.869 39.5113 48.869 39.726V41.168H50.255C50.451 41.168 50.6003 41.2193 50.703 41.322C50.815 41.4153 50.871 41.546 50.871 41.714C50.871 41.8913 50.815 42.0267 50.703 42.12C50.6003 42.2133 50.451 42.26 50.255 42.26H48.869V45.648C48.869 46.0867 48.9577 46.4087 49.135 46.614C49.3217 46.8193 49.6017 46.936 49.975 46.964L50.367 46.992ZM59.316 41C59.9133 41 60.4406 41.1447 60.898 41.434C61.3553 41.7233 61.71 42.134 61.962 42.666C62.2233 43.198 62.354 43.8187 62.354 44.528C62.354 45.228 62.2233 45.8487 61.962 46.39C61.71 46.9313 61.3506 47.3513 60.884 47.65C60.4266 47.9487 59.904 48.098 59.316 48.098C58.8026 48.098 58.35 47.9907 57.958 47.776C57.566 47.552 57.2673 47.2347 57.062 46.824V47.384C57.062 47.5893 56.9966 47.7573 56.866 47.888C56.7446 48.0093 56.5766 48.07 56.362 48.07C56.1473 48.07 55.9746 48.0093 55.844 47.888C55.7133 47.7573 55.648 47.5893 55.648 47.384V38.732C55.648 38.5267 55.7133 38.3633 55.844 38.242C55.984 38.1207 56.1613 38.06 56.376 38.06C56.5813 38.06 56.7446 38.1207 56.866 38.242C56.9966 38.354 57.062 38.508 57.062 38.704V42.288C57.2673 41.8773 57.566 41.56 57.958 41.336C58.35 41.112 58.8026 41 59.316 41ZM58.98 46.978C59.5866 46.978 60.058 46.7633 60.394 46.334C60.7393 45.9047 60.912 45.3027 60.912 44.528C60.912 43.7627 60.744 43.1747 60.408 42.764C60.072 42.344 59.596 42.134 58.98 42.134C58.364 42.134 57.888 42.344 57.552 42.764C57.2253 43.184 57.062 43.7813 57.062 44.556C57.062 45.3307 57.2253 45.928 57.552 46.348C57.888 46.768 58.364 46.978 58.98 46.978ZM64.6335 48.07C64.4281 48.07 64.2555 48.014 64.1155 47.902C63.9848 47.79 63.9195 47.622 63.9195 47.398V41.714C63.9195 41.49 63.9848 41.322 64.1155 41.21C64.2555 41.0887 64.4281 41.028 64.6335 41.028C64.8388 41.028 65.0068 41.0887 65.1375 41.21C65.2681 41.322 65.3335 41.49 65.3335 41.714V47.398C65.3335 47.622 65.2681 47.79 65.1375 47.902C65.0068 48.014 64.8388 48.07 64.6335 48.07ZM64.6335 39.656C64.3628 39.656 64.1481 39.5813 63.9895 39.432C63.8308 39.2827 63.7515 39.0867 63.7515 38.844C63.7515 38.6013 63.8308 38.41 63.9895 38.27C64.1481 38.1207 64.3628 38.046 64.6335 38.046C64.8948 38.046 65.1048 38.1207 65.2635 38.27C65.4315 38.41 65.5155 38.6013 65.5155 38.844C65.5155 39.0867 65.4361 39.2827 65.2775 39.432C65.1188 39.5813 64.9041 39.656 64.6335 39.656ZM64.6195 50.688C64.3768 50.688 64.1808 50.6133 64.0315 50.464C63.8821 50.324 63.8075 50.1373 63.8075 49.904C63.8075 49.6707 63.8821 49.484 64.0315 49.344C64.1808 49.204 64.3768 49.134 64.6195 49.134C64.8528 49.134 65.0441 49.204 65.1935 49.344C65.3521 49.4933 65.4315 49.68 65.4315 49.904C65.4315 50.1373 65.3568 50.324 65.2075 50.464C65.0581 50.6133 64.8621 50.688 64.6195 50.688Z" fill="#FF7506"/>
    <path d="M3.75675 37.167H10.2376C12.3142 37.167 12.8334 37.6862 12.8334 39.757V43.4495C12.8334 45.5262 12.3142 46.0395 10.2434 46.0395H3.75675C1.68591 46.0453 1.16675 45.5262 1.16675 43.4553V39.757C1.16675 37.6862 1.68591 37.167 3.75675 37.167Z" stroke="#FF7506" stroke-linecap="round" stroke-linejoin="round"/>
    <path d="M7 46.0449V48.8333" stroke="#FF7506" stroke-linecap="round" stroke-linejoin="round"/>
    <path d="M1.16675 43.583H12.8334" stroke="#FF7506" stroke-linecap="round" stroke-linejoin="round"/>
    <path d="M4.375 48.833H9.625" stroke="#FF7506" stroke-linecap="round" stroke-linejoin="round"/>
</svg>
