<svg width="64" height="54" viewBox="0 0 64 54" fill="none"
    xmlns="http://www.w3.org/2000/svg">
    <path d="M12.48 20.048C13.648 20.048 14.232 20.52 14.232 21.464C14.232 22.424 13.648 22.904 12.48 22.904H11.592V24.272C11.592 24.88 11.424 25.344 11.088 25.664C10.752 25.984 10.312 26.144 9.768 26.144C9.224 26.144 8.784 25.984 8.448 25.664C8.112 25.344 7.944 24.88 7.944 24.272V22.904H2.112C1.616 22.904 1.224 22.76 0.936 22.472C0.648 22.168 0.504 21.792 0.504 21.344C0.504 20.896 0.656 20.448 0.96 20L8.112 9.776C8.304 9.504 8.544 9.304 8.832 9.176C9.12 9.032 9.424 8.96 9.744 8.96C10.24 8.96 10.672 9.128 11.04 9.464C11.408 9.784 11.592 10.232 11.592 10.808V20.048H12.48ZM4.272 20.048H7.944V14.768L4.272 20.048ZM17.5106 26.144C16.9186 26.144 16.4306 25.952 16.0466 25.568C15.6626 25.168 15.4706 24.672 15.4706 24.08C15.4706 23.488 15.6626 23 16.0466 22.616C16.4306 22.216 16.9186 22.016 17.5106 22.016C18.1026 22.016 18.5906 22.216 18.9746 22.616C19.3586 23 19.5506 23.488 19.5506 24.08C19.5506 24.672 19.3586 25.168 18.9746 25.568C18.5906 25.952 18.1026 26.144 17.5106 26.144ZM32.433 23C33.617 23 34.209 23.496 34.209 24.488C34.209 25.496 33.617 26 32.433 26H23.505C23.009 26 22.609 25.856 22.305 25.568C22.017 25.264 21.873 24.888 21.873 24.44C21.873 23.864 22.105 23.336 22.569 22.856L27.849 17.264C29.033 16.016 29.625 14.864 29.625 13.808C29.625 13.152 29.441 12.656 29.073 12.32C28.705 11.968 28.169 11.792 27.465 11.792C26.857 11.792 26.297 11.896 25.785 12.104C25.273 12.312 24.681 12.616 24.009 13.016C23.737 13.176 23.529 13.288 23.385 13.352C23.241 13.416 23.073 13.448 22.881 13.448C22.545 13.448 22.257 13.296 22.017 12.992C21.777 12.672 21.657 12.304 21.657 11.888C21.657 11.584 21.705 11.336 21.801 11.144C21.913 10.936 22.089 10.752 22.329 10.592C23.049 10.064 23.873 9.648 24.801 9.344C25.745 9.024 26.689 8.864 27.633 8.864C28.769 8.864 29.761 9.056 30.609 9.44C31.473 9.824 32.137 10.376 32.601 11.096C33.065 11.8 33.297 12.616 33.297 13.544C33.297 14.52 33.089 15.424 32.673 16.256C32.273 17.088 31.593 18.016 30.633 19.04L26.865 23H32.433ZM46.8471 23C48.0311 23 48.6231 23.496 48.6231 24.488C48.6231 25.496 48.0311 26 46.8471 26H37.9191C37.4231 26 37.0231 25.856 36.7191 25.568C36.4311 25.264 36.2871 24.888 36.2871 24.44C36.2871 23.864 36.5191 23.336 36.9831 22.856L42.2631 17.264C43.4471 16.016 44.0391 14.864 44.0391 13.808C44.0391 13.152 43.8551 12.656 43.4871 12.32C43.1191 11.968 42.5831 11.792 41.8791 11.792C41.2711 11.792 40.7111 11.896 40.1991 12.104C39.6871 12.312 39.0951 12.616 38.4231 13.016C38.1511 13.176 37.9431 13.288 37.7991 13.352C37.6551 13.416 37.4871 13.448 37.2951 13.448C36.9591 13.448 36.6711 13.296 36.4311 12.992C36.1911 12.672 36.0711 12.304 36.0711 11.888C36.0711 11.584 36.1191 11.336 36.2151 11.144C36.3271 10.936 36.5031 10.752 36.7431 10.592C37.4631 10.064 38.2871 9.648 39.2151 9.344C40.1591 9.024 41.1031 8.864 42.0471 8.864C43.1831 8.864 44.1751 9.056 45.0231 9.44C45.8871 9.824 46.5511 10.376 47.0151 11.096C47.4791 11.8 47.7111 12.616 47.7111 13.544C47.7111 14.52 47.5031 15.424 47.0871 16.256C46.6871 17.088 46.0071 18.016 45.0471 19.04L41.2791 23H46.8471ZM61.5971 23C62.7651 23 63.3491 23.496 63.3491 24.488C63.3491 25.496 62.7651 26 61.5971 26H53.3891C52.2051 26 51.6131 25.496 51.6131 24.488C51.6131 23.496 52.2051 23 53.3891 23H55.6211V13.184L53.5091 14.456C53.2691 14.6 53.0291 14.672 52.7891 14.672C52.3891 14.672 52.0451 14.504 51.7571 14.168C51.4851 13.832 51.3491 13.456 51.3491 13.04C51.3491 12.48 51.5971 12.056 52.0931 11.768L55.8851 9.488C56.4451 9.152 57.0051 8.984 57.5651 8.984C58.0931 8.984 58.5251 9.152 58.8611 9.488C59.1971 9.808 59.3651 10.248 59.3651 10.808V23H61.5971Z" fill="#535261"/>
    <path d="M23.446 48.112C22.5033 48.112 21.682 47.9113 20.982 47.51C20.282 47.0993 19.7453 46.516 19.372 45.76C18.9987 44.9947 18.812 44.094 18.812 43.058C18.812 42.0313 18.9987 41.14 19.372 40.384C19.7453 39.6187 20.282 39.0353 20.982 38.634C21.682 38.2233 22.5033 38.018 23.446 38.018C24.062 38.018 24.6453 38.116 25.196 38.312C25.7467 38.4987 26.2273 38.774 26.638 39.138C26.8153 39.278 26.904 39.4647 26.904 39.698C26.904 39.866 26.8573 40.0107 26.764 40.132C26.6707 40.244 26.5587 40.3 26.428 40.3C26.2693 40.3 26.1153 40.2393 25.966 40.118C25.518 39.782 25.1073 39.5487 24.734 39.418C24.37 39.278 23.9547 39.208 23.488 39.208C22.4613 39.208 21.6727 39.5393 21.122 40.202C20.5713 40.8647 20.296 41.8167 20.296 43.058C20.296 44.3087 20.5713 45.2653 21.122 45.928C21.6727 46.5907 22.4613 46.922 23.488 46.922C23.936 46.922 24.342 46.852 24.706 46.712C25.0793 46.572 25.4993 46.3387 25.966 46.012C26.1527 45.8907 26.3067 45.83 26.428 45.83C26.5587 45.83 26.6707 45.8907 26.764 46.012C26.8573 46.124 26.904 46.264 26.904 46.432C26.904 46.6653 26.8153 46.852 26.638 46.992C26.2273 47.356 25.7467 47.636 25.196 47.832C24.6453 48.0187 24.062 48.112 23.446 48.112ZM31.1879 41C32.0932 41 32.7652 41.2287 33.2039 41.686C33.6519 42.1433 33.8759 42.8387 33.8759 43.772V47.398C33.8759 47.6127 33.8152 47.7807 33.6939 47.902C33.5726 48.014 33.4046 48.07 33.1899 48.07C32.9846 48.07 32.8212 48.0093 32.6999 47.888C32.5786 47.7667 32.5179 47.6033 32.5179 47.398V46.88C32.3406 47.272 32.0746 47.5753 31.7199 47.79C31.3746 47.9953 30.9686 48.098 30.5019 48.098C30.0539 48.098 29.6432 48.0093 29.2699 47.832C28.9059 47.6453 28.6166 47.3933 28.4019 47.076C28.1872 46.7587 28.0799 46.3993 28.0799 45.998C28.0706 45.494 28.1966 45.102 28.4579 44.822C28.7192 44.5327 29.1439 44.3273 29.7319 44.206C30.3199 44.0753 31.1366 44.01 32.1819 44.01H32.5039V43.604C32.5039 43.0813 32.3966 42.7033 32.1819 42.47C31.9672 42.2367 31.6219 42.12 31.1459 42.12C30.8192 42.12 30.5112 42.162 30.2219 42.246C29.9326 42.33 29.6152 42.4513 29.2699 42.61C29.0179 42.75 28.8406 42.82 28.7379 42.82C28.5979 42.82 28.4812 42.7687 28.3879 42.666C28.3039 42.5633 28.2619 42.4327 28.2619 42.274C28.2619 42.134 28.2992 42.0127 28.3739 41.91C28.4579 41.798 28.5886 41.6907 28.7659 41.588C29.0926 41.4107 29.4752 41.2707 29.9139 41.168C30.3526 41.056 30.7772 41 31.1879 41ZM30.7539 47.048C31.2672 47.048 31.6872 46.8753 32.0139 46.53C32.3406 46.1753 32.5039 45.7227 32.5039 45.172V44.808H32.2519C31.5239 44.808 30.9639 44.8407 30.5719 44.906C30.1799 44.9713 29.8999 45.0833 29.7319 45.242C29.5639 45.3913 29.4799 45.6107 29.4799 45.9C29.4799 46.236 29.6012 46.5113 29.8439 46.726C30.0866 46.9407 30.3899 47.048 30.7539 47.048ZM33.0359 38.816C32.9706 38.8533 32.9006 38.872 32.8259 38.872C32.7326 38.872 32.6486 38.8393 32.5739 38.774C32.5086 38.7087 32.4759 38.6293 32.4759 38.536C32.4759 38.4427 32.5086 38.3587 32.5739 38.284L33.5399 37.038C33.6986 36.842 33.8712 36.744 34.0579 36.744C34.2166 36.744 34.3519 36.8047 34.4639 36.926C34.5852 37.038 34.6459 37.1733 34.6459 37.332C34.6459 37.5653 34.5246 37.7567 34.2819 37.906L33.0359 38.816ZM30.0259 40.202C29.9419 40.286 29.8346 40.328 29.7039 40.328C29.5732 40.328 29.4612 40.2813 29.3679 40.188C29.2746 40.0947 29.2279 39.9873 29.2279 39.866C29.2279 39.7073 29.3026 39.572 29.4519 39.46L30.6139 38.396C30.8006 38.2467 30.9919 38.172 31.1879 38.172C31.3652 38.172 31.5566 38.2467 31.7619 38.396L32.9239 39.46C33.0826 39.5813 33.1619 39.7213 33.1619 39.88C33.1619 40.0013 33.1106 40.1087 33.0079 40.202C32.9146 40.2953 32.8026 40.342 32.6719 40.342C32.5692 40.342 32.4666 40.3 32.3639 40.216L31.1879 39.054L30.0259 40.202ZM39.4781 41C40.0661 41 40.5887 41.1493 41.0461 41.448C41.5127 41.7467 41.8721 42.1667 42.1241 42.708C42.3854 43.2493 42.5161 43.8747 42.5161 44.584C42.5161 45.284 42.3901 45.9 42.1381 46.432C41.8861 46.964 41.5267 47.3747 41.0601 47.664C40.6027 47.9533 40.0754 48.098 39.4781 48.098C38.9647 48.098 38.5121 47.9907 38.1201 47.776C37.7281 47.552 37.4294 47.2347 37.2241 46.824V49.946C37.2241 50.142 37.1587 50.296 37.0281 50.408C36.9067 50.5293 36.7434 50.59 36.5381 50.59C36.3234 50.59 36.1461 50.5293 36.0061 50.408C35.8754 50.2867 35.8101 50.1233 35.8101 49.918V41.714C35.8101 41.5087 35.8754 41.3453 36.0061 41.224C36.1367 41.0933 36.3094 41.028 36.5241 41.028C36.7294 41.028 36.8974 41.0933 37.0281 41.224C37.1587 41.3453 37.2241 41.5087 37.2241 41.714V42.288C37.4294 41.8773 37.7281 41.56 38.1201 41.336C38.5121 41.112 38.9647 41 39.4781 41ZM39.1421 46.978C39.7581 46.978 40.2341 46.7727 40.5701 46.362C40.9061 45.942 41.0741 45.3493 41.0741 44.584C41.0741 43.8093 40.9014 43.2073 40.5561 42.778C40.2201 42.3487 39.7487 42.134 39.1421 42.134C38.5261 42.134 38.0501 42.344 37.7141 42.764C37.3874 43.184 37.2241 43.7813 37.2241 44.556C37.2241 45.3307 37.3874 45.928 37.7141 46.348C38.0501 46.768 38.5261 46.978 39.1421 46.978ZM50.153 48.098C49.201 48.098 48.4216 47.902 47.815 47.51C47.647 47.4073 47.5256 47.3 47.451 47.188C47.3856 47.076 47.353 46.95 47.353 46.81C47.353 46.6607 47.395 46.5347 47.479 46.432C47.563 46.3293 47.6703 46.278 47.801 46.278C47.9223 46.278 48.1136 46.3527 48.375 46.502C48.655 46.6513 48.9256 46.7727 49.187 46.866C49.4576 46.9593 49.7936 47.006 50.195 47.006C50.643 47.006 50.993 46.9267 51.245 46.768C51.497 46.6093 51.623 46.3853 51.623 46.096C51.623 45.9093 51.5716 45.76 51.469 45.648C51.3756 45.536 51.2076 45.438 50.965 45.354C50.7223 45.2607 50.363 45.1627 49.887 45.06C49.0656 44.8827 48.473 44.6447 48.109 44.346C47.7543 44.038 47.577 43.6227 47.577 43.1C47.577 42.6987 47.6936 42.3393 47.927 42.022C48.1603 41.6953 48.4823 41.4433 48.893 41.266C49.3036 41.0887 49.7703 41 50.293 41C50.6663 41 51.0303 41.0513 51.385 41.154C51.7396 41.2473 52.0523 41.3873 52.323 41.574C52.631 41.7793 52.785 42.0173 52.785 42.288C52.785 42.4373 52.7383 42.5633 52.645 42.666C52.561 42.7687 52.4583 42.82 52.337 42.82C52.253 42.82 52.169 42.8013 52.085 42.764C52.001 42.7267 51.889 42.666 51.749 42.582C51.497 42.4327 51.259 42.316 51.035 42.232C50.8203 42.148 50.5496 42.106 50.223 42.106C49.831 42.106 49.5136 42.19 49.271 42.358C49.0376 42.526 48.921 42.7547 48.921 43.044C48.921 43.3053 49.0283 43.5107 49.243 43.66C49.467 43.8 49.8823 43.9353 50.489 44.066C51.1143 44.1967 51.6043 44.346 51.959 44.514C52.3136 44.682 52.5656 44.892 52.715 45.144C52.8736 45.3867 52.953 45.6993 52.953 46.082C52.953 46.6887 52.6963 47.1787 52.183 47.552C51.679 47.916 51.0023 48.098 50.153 48.098ZM57.4949 48.098C56.8229 48.098 56.2302 47.9533 55.7169 47.664C55.2129 47.3747 54.8209 46.964 54.5409 46.432C54.2702 45.8907 54.1349 45.2653 54.1349 44.556C54.1349 43.8373 54.2702 43.212 54.5409 42.68C54.8209 42.1387 55.2129 41.7233 55.7169 41.434C56.2302 41.1447 56.8229 41 57.4949 41C58.1669 41 58.7549 41.1447 59.2589 41.434C59.7722 41.7233 60.1642 42.1387 60.4349 42.68C60.7149 43.212 60.8549 43.8373 60.8549 44.556C60.8549 45.2653 60.7149 45.8907 60.4349 46.432C60.1642 46.964 59.7722 47.3747 59.2589 47.664C58.7549 47.9533 58.1669 48.098 57.4949 48.098ZM57.4949 46.978C58.1202 46.978 58.5962 46.7727 58.9229 46.362C59.2589 45.9513 59.4269 45.3493 59.4269 44.556C59.4269 43.772 59.2589 43.1747 58.9229 42.764C58.5869 42.344 58.1109 42.134 57.4949 42.134C56.8789 42.134 56.4029 42.344 56.0669 42.764C55.7309 43.1747 55.5629 43.772 55.5629 44.556C55.5629 45.3493 55.7262 45.9513 56.0529 46.362C56.3889 46.7727 56.8695 46.978 57.4949 46.978ZM59.3429 38.816C59.2775 38.8533 59.2075 38.872 59.1329 38.872C59.0395 38.872 58.9555 38.8393 58.8809 38.774C58.8155 38.7087 58.7829 38.6293 58.7829 38.536C58.7829 38.4427 58.8155 38.3587 58.8809 38.284L59.8469 37.038C60.0055 36.842 60.1782 36.744 60.3649 36.744C60.5235 36.744 60.6589 36.8047 60.7709 36.926C60.8922 37.038 60.9529 37.1733 60.9529 37.332C60.9529 37.5653 60.8315 37.7567 60.5889 37.906L59.3429 38.816ZM56.3329 40.202C56.2489 40.286 56.1415 40.328 56.0109 40.328C55.8802 40.328 55.7682 40.2813 55.6749 40.188C55.5815 40.0947 55.5349 39.9873 55.5349 39.866C55.5349 39.7073 55.6095 39.572 55.7589 39.46L56.9209 38.396C57.1075 38.2467 57.2989 38.172 57.4949 38.172C57.6722 38.172 57.8635 38.2467 58.0689 38.396L59.2309 39.46C59.3895 39.5813 59.4689 39.7213 59.4689 39.88C59.4689 40.0013 59.4175 40.1087 59.3149 40.202C59.2215 40.2953 59.1095 40.342 58.9789 40.342C58.8762 40.342 58.7735 40.3 58.6709 40.216L57.4949 39.054L56.3329 40.202Z" fill="#35C75A"/>
    <g clip-path="url(#clip0_233_8364)">
        <g clip-path="url(#clip1_233_8364)">
            <path d="M1.16675 46.917L7.00008 49.8337L12.8334 46.917" stroke="#35C75A" stroke-width="1.16667" stroke-linecap="round" stroke-linejoin="round"/>
            <path d="M1.16675 44L7.00008 46.9167L12.8334 44" stroke="#35C75A" stroke-width="1.16667" stroke-linecap="round" stroke-linejoin="round"/>
            <path d="M7.00008 38.167L1.16675 41.0837L7.00008 44.0003L12.8334 41.0837L7.00008 38.167Z" stroke="#35C75A" stroke-width="1.16667" stroke-linecap="round" stroke-linejoin="round"/>
        </g>
    </g>
    <defs>
        <clipPath id="clip0_233_8364">
            <rect width="14" height="14" fill="white" transform="translate(0 37)"/>
        </clipPath>
        <clipPath id="clip1_233_8364">
            <rect width="14" height="14" fill="white" transform="translate(0 37)"/>
        </clipPath>
    </defs>
</svg>
